{
	"asset": {
		"generator": "SOLIDWORKSGLTF",
		"version" : "2.0"
	},
"extensionsUsed": [ "KHR_lights_punctual", "Solidworks_custom_properties" ],
	"scene" : 0,
	"scenes": [
		{
			"name": "Valor predeterminado - <Valor predeterminado>_Estado de exibicao 1",
			"nodes": [
				0]
		}
	],
	"nodes": [
		{
			"mesh": 0
			,"name": "Modelo 33"		}
	],
	"meshes" : [
		{
			"primitives" : [
				{
					"attributes" : {
					"POSITION" : 1,
					"NORMAL" : 2,
					"TEXCOORD_0" : 3
					},
					"indices" : 0,
					"mode": 4,
					"material" : 1
				}
			]
		}
	],
	"accessors" : [
			{
				"bufferView": 3
				,"byteOffset" : 0
				,"componentType" : 5123
				,"count" : 1476
				,"type" : "SCALAR"
			},
			{
				"bufferView": 0
				,"byteOffset" : 0
				,"componentType" : 5126
				,"count" : 1476
				,"type" : "VEC3"
				,"min" : [-4.19999994e-02, -7.34788054e-19, -1.49999997e-02]
				,"max" : [1.17549435e-38, 6.69487640e-02, 1.49999997e-02]
			},
			{
				"bufferView": 1
				,"byteOffset" : 0
				,"componentType" : 5126
				,"count" : 1476
				,"type" : "VEC3"
			},
			{
				"bufferView": 2
				,"byteOffset" : 0
				,"componentType" : 5126
				,"count" : 1476
				,"type" : "VEC2"
			}
	],
	"materials": [
			{
				"pbrMetallicRoughness": {
					"baseColorFactor": [
						0.498039, 0.498039, 0.498039, 1
					]
					,"metallicFactor": 0
					,"roughnessFactor": 1
				}
			},
			{
				"name": "dark grey soft touch plastic"
				,"pbrMetallicRoughness": {
					"baseColorFactor": [
						0.956863, 0.643137, 0.376471, 1
					]
					,"metallicFactor": 0
					,"roughnessFactor": 0.19
				}
			}
	],
	"bufferViews" : [
			{
				"buffer": 0
				,"byteOffset" : 0
				,"byteLength" : 17712
				,"byteStride" : 12
				,"target" : 34962
			},
			{
				"buffer": 0
				,"byteOffset" : 17712
				,"byteLength" : 17712
				,"byteStride" : 12
				,"target" : 34962
			},
			{
				"buffer": 0
				,"byteOffset" : 35424
				,"byteLength" : 11808
				,"byteStride" : 8
				,"target" : 34962
			},
			{
				"buffer": 0
				,"byteOffset" : 47232
				,"byteLength" : 2952
				,"target" : 34963
			}
	],
	"buffers" : [
			{
				"byteLength": 50184
				,"uri" : "Modelo_33.bin"
			}
	]
}
