{
	"asset": {
		"generator": "SOLIDWORKSGLTF",
		"version" : "2.0"
	},
"extensionsUsed": [ "KHR_lights_punctual", "Solidworks_custom_properties" ],
	"scene" : 0,
	"scenes": [
		{
			"name": "Valor predeterminado - <Valor predeterminado>_Aparencia Estado de exibicao",
			"nodes": [
				11, 12, 13]
		}
	],
	"nodes": [
		{
			"matrix": [
				0.935414,					0,					-0.353553,					0,
				-0.117851,					0.942809,					-0.311805,					0,
				0.333333,					0.333333,					0.881917,					0,
				0.0759469,					0.0759469,					0.200937,					1
			]
			,"camera": 0
			,"name": "current"		}
,
		{
			"matrix": [
				1,					0,					0,					0,
				0,					1,					0,					0,
				0,					0,					1,					0,
				0,					1.59595e-15,					0.227841,					1
			]
			,"camera": 1
			,"name": "*Normal a"		}
,
		{
			"matrix": [
				1,					0,					0,					0,
				0,					1,					0,					0,
				0,					0,					1,					0,
				0,					1.59595e-15,					0.227841,					1
			]
			,"camera": 2
			,"name": "*Frontal"		}
,
		{
			"matrix": [
				-1,					0,					0,					0,
				0,					1,					0,					0,
				0,					0,					-1,					0,
				0,					1.59595e-15,					-0.227841,					1
			]
			,"camera": 3
			,"name": "*Posterior"		}
,
		{
			"matrix": [
				0,					0,					1,					0,
				0,					1,					0,					0,
				-1,					0,					0,					0,
				-0.227841,					1.59595e-15,					0,					1
			]
			,"camera": 4
			,"name": "*Esquerda"		}
,
		{
			"matrix": [
				0,					0,					-1,					0,
				0,					1,					0,					0,
				1,					0,					0,					0,
				0.227841,					1.59595e-15,					0,					1
			]
			,"camera": 5
			,"name": "*Direita"		}
,
		{
			"matrix": [
				1,					0,					0,					0,
				0,					0,					-1,					0,
				0,					1,					0,					0,
				0,					0.227841,					-1.59595e-15,					1
			]
			,"camera": 6
			,"name": "*Superior"		}
,
		{
			"matrix": [
				1,					0,					0,					0,
				0,					0,					1,					0,
				0,					-1,					0,					0,
				0,					-0.227841,					1.59595e-15,					1
			]
			,"camera": 7
			,"name": "*Inferior"		}
,
		{
			"matrix": [
				0.707107,					0,					-0.707107,					0,
				-0.408204,					0.816541,					-0.408204,					0,
				0.577382,					0.577288,					0.577382,					0,
				0.131551,					0.13153,					0.131551,					1
			]
			,"camera": 8
			,"name": "*Isometrica"		}
,
		{
			"matrix": [
				0.884418,					0,					-0.466695,					0,
				-0.240366,					0.857167,					-0.455509,					0,
				0.400036,					0.515038,					0.758094,					0,
				0.0911445,					0.117347,					0.172725,					1
			]
			,"camera": 9
			,"name": "*Trimetrica"		}
,
		{
			"matrix": [
				0.935414,					0,					-0.353553,					0,
				-0.117851,					0.942809,					-0.311805,					0,
				0.333333,					0.333333,					0.881917,					0,
				0.0759469,					0.0759469,					0.200937,					1
			]
			,"camera": 10
			,"name": "*Dimetrica"		}
,
		{
			"mesh": 0
			,"name": "Modelo didatico 13.SLDPRT"		}
,
		{
			"matrix": [
				0.827081,					0.552127,					-0,					0,
				0.0581522,					-0.0871114,					-0.988907,					0,
				-0.552127,					0.827081,					-0.105324,					0,
				0.30512,					0.457066,					0.0582047,					1
			]
			,"extensions" : {
				"KHR_lights_punctual" : {
					"light" : 0
				}
			}
			,"name": "LightNode_Direcional3"		}
,
		{
			"matrix": [
				0.480989,					0.116256,					-0,					0,
				0.101025,					-0.417972,					-0.244866,					0,
				-0.116256,					0.480989,					-0.868985,					0,
				0.0642461,					0.265807,					0.480224,					1
			]
			,"extensions" : {
				"KHR_lights_punctual" : {
					"light" : 1
				}
			}
			,"name": "LightNode_Direcional4"		}
	],
	"cameras": [
		{
			"type": "perspective",
			"perspective" : {
				"aspectRatio": 1.91192,
				"yfov" : 1.22251,
				"zfar" : 100,
				"znear" : 0.01
			}
		}
,
		{
			"type": "perspective",
			"perspective" : {
				"aspectRatio": 1.91192,
				"yfov" : 1.22251,
				"zfar" : 100,
				"znear" : 0.01
			}
		}
,
		{
			"type": "perspective",
			"perspective" : {
				"aspectRatio": 1.91192,
				"yfov" : 1.22251,
				"zfar" : 100,
				"znear" : 0.01
			}
		}
,
		{
			"type": "perspective",
			"perspective" : {
				"aspectRatio": 1.91192,
				"yfov" : 1.22251,
				"zfar" : 100,
				"znear" : 0.01
			}
		}
,
		{
			"type": "perspective",
			"perspective" : {
				"aspectRatio": 1.91192,
				"yfov" : 1.22251,
				"zfar" : 100,
				"znear" : 0.01
			}
		}
,
		{
			"type": "perspective",
			"perspective" : {
				"aspectRatio": 1.91192,
				"yfov" : 1.22251,
				"zfar" : 100,
				"znear" : 0.01
			}
		}
,
		{
			"type": "perspective",
			"perspective" : {
				"aspectRatio": 1.91192,
				"yfov" : 1.22251,
				"zfar" : 100,
				"znear" : 0.01
			}
		}
,
		{
			"type": "perspective",
			"perspective" : {
				"aspectRatio": 1.91192,
				"yfov" : 1.22251,
				"zfar" : 100,
				"znear" : 0.01
			}
		}
,
		{
			"type": "perspective",
			"perspective" : {
				"aspectRatio": 1.91192,
				"yfov" : 1.22251,
				"zfar" : 100,
				"znear" : 0.01
			}
		}
,
		{
			"type": "perspective",
			"perspective" : {
				"aspectRatio": 1.91192,
				"yfov" : 1.22251,
				"zfar" : 100,
				"znear" : 0.01
			}
		}
,
		{
			"type": "perspective",
			"perspective" : {
				"aspectRatio": 1.91192,
				"yfov" : 1.22251,
				"zfar" : 100,
				"znear" : 0.01
			}
		}
	],
	"extensions": {
		"KHR_lights_punctual" : {
			"lights": [
				{
					"color" : [
						0.4,
						0.4,
						0.4
					],
					"type" : "directional"
				},
				{
					"color" : [
						0.52,
						0.52,
						0.52
					],
					"type" : "directional"
				}
			]
		}
	},
	"meshes" : [
		{
			"primitives" : [
				{
					"attributes" : {
					"POSITION" : 1,
					"NORMAL" : 2,
					"TEXCOORD_0" : 3
					},
					"indices" : 0,
					"mode": 4,
					"material" : 1
				}
			]
		}
	],
	"accessors" : [
			{
				"bufferView": 3
				,"byteOffset" : 0
				,"componentType" : 5123
				,"count" : 132
				,"type" : "SCALAR"
			},
			{
				"bufferView": 0
				,"byteOffset" : 0
				,"componentType" : 5126
				,"count" : 132
				,"type" : "VEC3"
				,"min" : [-9.99999978e-03, -1.60000008e-02, -2.64999997e-02]
				,"max" : [9.99999978e-03, 1.60000008e-02, 2.64999997e-02]
			},
			{
				"bufferView": 1
				,"byteOffset" : 0
				,"componentType" : 5126
				,"count" : 132
				,"type" : "VEC3"
			},
			{
				"bufferView": 2
				,"byteOffset" : 0
				,"componentType" : 5126
				,"count" : 132
				,"type" : "VEC2"
			}
	],
	"materials": [
			{
				"pbrMetallicRoughness": {
					"baseColorFactor": [
						0.498039, 0.498039, 0.498039, 1
					]
					,"metallicFactor": 0
					,"roughnessFactor": 1
				}
			},
			{
				"name": "color"
				,"pbrMetallicRoughness": {
					"baseColorFactor": [
						1, 0.843137, 0, 1
					]
					,"metallicFactor": 0
					,"roughnessFactor": 0.18
				}
			}
	],
	"bufferViews" : [
			{
				"buffer": 0
				,"byteOffset" : 0
				,"byteLength" : 1584
				,"byteStride" : 12
				,"target" : 34962
			},
			{
				"buffer": 0
				,"byteOffset" : 1584
				,"byteLength" : 1584
				,"byteStride" : 12
				,"target" : 34962
			},
			{
				"buffer": 0
				,"byteOffset" : 3168
				,"byteLength" : 1056
				,"byteStride" : 8
				,"target" : 34962
			},
			{
				"buffer": 0
				,"byteOffset" : 4224
				,"byteLength" : 264
				,"target" : 34963
			}
	],
	"buffers" : [
			{
				"byteLength": 4488
				,"uri" : "Modelo_didatico_13.SLDPRT.bin"
			}
	]
}
